<svg width="12" height="13" viewBox="0 0 12 13" fill="none" xmlns="http://www.w3.org/2000/svg">
<path d="M5.41406 9.16797H6.58073V5.66797H5.41406V9.16797ZM5.9974 4.5013C6.16267 4.5013 6.30131 4.4453 6.41331 4.3333C6.52531 4.2213 6.58112 4.08286 6.58073 3.91797C6.58034 3.75308 6.52434 3.61464 6.41273 3.50264C6.30112 3.39064 6.16267 3.33464 5.9974 3.33464C5.83212 3.33464 5.69367 3.39064 5.58206 3.50264C5.47045 3.61464 5.41445 3.75308 5.41406 3.91797C5.41367 4.08286 5.46967 4.2215 5.58206 4.33389C5.69445 4.44627 5.8329 4.50208 5.9974 4.5013ZM5.9974 12.0846C5.19045 12.0846 4.43212 11.9314 3.7224 11.625C3.01267 11.3185 2.39531 10.903 1.87031 10.3784C1.34531 9.85377 0.929785 9.23641 0.62373 8.5263C0.317674 7.81619 0.164452 7.05786 0.164063 6.2513C0.163674 5.44475 0.316897 4.68641 0.62373 3.9763C0.930563 3.26619 1.34609 2.64883 1.87031 2.12422C2.39454 1.59961 3.0119 1.18408 3.7224 0.877635C4.4329 0.571191 5.19123 0.417969 5.9974 0.417969C6.80356 0.417969 7.5619 0.571191 8.2724 0.877635C8.9829 1.18408 9.60026 1.59961 10.1245 2.12422C10.6487 2.64883 11.0644 3.26619 11.3716 3.9763C11.6789 4.68641 11.8319 5.44475 11.8307 6.2513C11.8296 7.05786 11.6763 7.81619 11.3711 8.5263C11.0658 9.23641 10.6503 9.85377 10.1245 10.3784C9.5987 10.903 8.98134 11.3187 8.2724 11.6256C7.56345 11.9324 6.80512 12.0854 5.9974 12.0846ZM5.9974 10.918C7.30017 10.918 8.40365 10.4659 9.30781 9.56172C10.212 8.65755 10.6641 7.55408 10.6641 6.2513C10.6641 4.94852 10.212 3.84505 9.30781 2.94089C8.40365 2.03672 7.30017 1.58464 5.9974 1.58464C4.69462 1.58464 3.59115 2.03672 2.68698 2.94089C1.78281 3.84505 1.33073 4.94852 1.33073 6.2513C1.33073 7.55408 1.78281 8.65755 2.68698 9.56172C3.59115 10.4659 4.69462 10.918 5.9974 10.918Z" fill="#7C7C7C"/>
</svg>
