<svg width="25" height="25" viewBox="0 0 25 25" fill="none" xmlns="http://www.w3.org/2000/svg">
<path d="M6.27881 5.18011C6.41926 5.32074 6.49815 5.51136 6.49815 5.71011C6.49815 5.90887 6.41926 6.09949 6.27881 6.24011C5.48949 7.02942 4.86336 7.96646 4.43618 8.99775C4.009 10.029 3.78913 11.1344 3.78913 12.2506C3.78913 13.3669 4.009 14.4722 4.43618 15.5035C4.86336 16.5348 5.48949 17.4718 6.27881 18.2611C6.41537 18.4026 6.49087 18.5921 6.48907 18.7888C6.48727 18.9854 6.40831 19.1735 6.26918 19.3125C6.13006 19.4515 5.94191 19.5303 5.74527 19.5319C5.54862 19.5335 5.3592 19.4578 5.21781 19.3211C1.31281 15.4161 1.31281 9.08511 5.21781 5.18011C5.35844 5.03966 5.54906 4.96077 5.74781 4.96077C5.94656 4.96077 6.13819 5.03966 6.27881 5.18011ZM19.3588 5.18011C23.2638 9.08511 23.2638 15.4171 19.3588 19.3221C19.2166 19.4546 19.0286 19.5267 18.8343 19.5233C18.64 19.5199 18.4546 19.4411 18.3172 19.3037C18.1798 19.1663 18.1011 18.9809 18.0976 18.7866C18.0942 18.5923 18.1663 18.4043 18.2988 18.2621C19.0883 17.4728 19.7145 16.5357 20.1418 15.5043C20.5691 14.4729 20.789 13.3675 20.789 12.2511C20.789 11.1347 20.5691 10.0293 20.1418 8.99792C19.7145 7.96654 19.0883 7.02943 18.2988 6.24011C18.2251 6.17145 18.166 6.08865 18.125 5.99665C18.084 5.90465 18.062 5.80534 18.0602 5.70464C18.0584 5.60393 18.077 5.50391 18.1147 5.41052C18.1524 5.31713 18.2086 5.2323 18.2798 5.16108C18.351 5.08986 18.4358 5.03371 18.5292 4.99599C18.6226 4.95827 18.7226 4.93975 18.8233 4.94152C18.924 4.9433 19.0234 4.96534 19.1154 5.00633C19.2073 5.04733 19.2901 5.10643 19.3588 5.18011ZM9.10681 8.00811C9.24726 8.14874 9.32615 8.33936 9.32615 8.53811C9.32615 8.73687 9.24726 8.92749 9.10681 9.06812C8.68879 9.486 8.35719 9.98214 8.13096 10.5282C7.90472 11.0743 7.78827 11.6595 7.78827 12.2506C7.78827 12.8417 7.90472 13.427 8.13096 13.973C8.35719 14.5191 8.68879 15.0152 9.10681 15.4331C9.23929 15.5753 9.31142 15.7633 9.30799 15.9576C9.30456 16.1519 9.22585 16.3373 9.08843 16.4747C8.95102 16.6121 8.76564 16.6909 8.57133 16.6943C8.37703 16.6977 8.18899 16.6256 8.04681 16.4931C6.92168 15.3679 6.28959 13.8418 6.28959 12.2506C6.28959 10.6594 6.92168 9.13332 8.04681 8.00811C8.18744 7.86766 8.37806 7.78877 8.57681 7.78877C8.77556 7.78877 8.96619 7.86766 9.10681 8.00811ZM16.5318 8.00811C17.6569 9.13332 18.289 10.6594 18.289 12.2506C18.289 13.8418 17.6569 15.3679 16.5318 16.4931C16.4627 16.5648 16.3799 16.622 16.2884 16.6613C16.197 16.7007 16.0986 16.7214 15.999 16.7223C15.8994 16.7232 15.8006 16.7043 15.7084 16.6666C15.6162 16.6289 15.5325 16.5733 15.462 16.5029C15.3916 16.4325 15.3358 16.3488 15.2981 16.2567C15.2603 16.1645 15.2413 16.0658 15.2421 15.9662C15.2429 15.8666 15.2636 15.7682 15.3029 15.6766C15.3421 15.5851 15.3992 15.5023 15.4708 15.4331C15.8887 15.0153 16.2202 14.5192 16.4463 13.9732C16.6725 13.4272 16.7889 12.8421 16.7889 12.2511C16.7889 11.6602 16.6725 11.075 16.4463 10.529C16.2202 9.98306 15.8887 9.48698 15.4708 9.06911C15.3383 8.92694 15.2662 8.73889 15.2696 8.54459C15.2731 8.35029 15.3518 8.16491 15.4892 8.02749C15.6266 7.89008 15.812 7.81137 16.0063 7.80794C16.2006 7.80451 16.3886 7.87663 16.5308 8.00911" fill="#C2C2C2"/>
<path d="M17.4128 7.12721C16.0539 5.76831 14.2108 5.00488 12.2891 5.00488C10.3673 5.00488 8.52421 5.76831 7.1653 7.12721C5.80639 8.48612 5.04297 10.3292 5.04297 12.251C5.04297 14.1728 5.80639 16.0158 7.1653 17.3747C8.52421 18.7336 10.3673 19.4971 12.2891 19.4971C14.2108 19.4971 16.0539 18.7336 17.4128 17.3747C18.7717 16.0158 19.5352 14.1728 19.5352 12.251C19.5352 10.3292 18.7717 8.48612 17.4128 7.12721Z" fill="#00B33E"/>
</svg>
