<svg width="24" height="25" viewBox="0 0 24 25" fill="none" xmlns="http://www.w3.org/2000/svg">
<path d="M5.98975 5.42902C6.1302 5.56964 6.20909 5.76027 6.20909 5.95902C6.20909 6.15777 6.1302 6.34839 5.98975 6.48902C5.20042 7.27832 4.5743 8.21536 4.14711 9.24665C3.71993 10.2779 3.50007 11.3833 3.50007 12.4995C3.50007 13.6158 3.71993 14.7211 4.14711 15.7524C4.5743 16.7837 5.20042 17.7207 5.98975 18.51C6.1263 18.6515 6.20181 18.841 6.20001 19.0377C6.19821 19.2343 6.11924 19.4224 5.98012 19.5614C5.841 19.7004 5.65285 19.7792 5.4562 19.7808C5.25955 19.7824 5.07014 19.7067 4.92875 19.57C1.02375 15.665 1.02375 9.33402 4.92875 5.42902C5.06938 5.28857 5.26 5.20968 5.45875 5.20968C5.6575 5.20968 5.84912 5.28857 5.98975 5.42902ZM19.0697 5.42902C22.9748 9.33402 22.9748 15.666 19.0697 19.571C18.9276 19.7035 18.7395 19.7756 18.5452 19.7722C18.3509 19.7688 18.1655 19.6901 18.0281 19.5526C17.8907 19.4152 17.812 19.2298 17.8086 19.0355C17.8051 18.8412 17.8773 18.6532 18.0098 18.511C18.7992 17.7217 19.4255 16.7846 19.8528 15.7532C20.28 14.7218 20.4999 13.6164 20.4999 12.5C20.4999 11.3836 20.28 10.2782 19.8528 9.24682C19.4255 8.21544 18.7992 7.27834 18.0098 6.48902C17.9361 6.42035 17.877 6.33755 17.836 6.24555C17.795 6.15355 17.7729 6.05424 17.7712 5.95354C17.7694 5.85284 17.7879 5.75281 17.8256 5.65942C17.8633 5.56603 17.9195 5.4812 17.9907 5.40998C18.0619 5.33876 18.1468 5.28261 18.2402 5.24489C18.3335 5.20717 18.4336 5.18865 18.5343 5.19042C18.635 5.1922 18.7343 5.21424 18.8263 5.25524C18.9183 5.29623 19.0011 5.35533 19.0697 5.42902ZM8.81775 8.25702C8.9582 8.39764 9.03709 8.58827 9.03709 8.78702C9.03709 8.98577 8.9582 9.17639 8.81775 9.31702C8.39973 9.7349 8.06813 10.231 7.84189 10.7771C7.61566 11.3232 7.49921 11.9084 7.49921 12.4995C7.49921 13.0906 7.61566 13.6759 7.84189 14.2219C8.06813 14.768 8.39973 15.2641 8.81775 15.682C8.95023 15.8242 9.02235 16.0122 9.01892 16.2065C9.0155 16.4008 8.93678 16.5862 8.79937 16.7236C8.66196 16.8611 8.47657 16.9398 8.28227 16.9432C8.08797 16.9466 7.89993 16.8745 7.75775 16.742C6.63262 15.6168 6.00053 14.0907 6.00053 12.4995C6.00053 10.9083 6.63262 9.38222 7.75775 8.25702C7.89838 8.11657 8.089 8.03768 8.28775 8.03768C8.4865 8.03768 8.67712 8.11657 8.81775 8.25702ZM16.2428 8.25702C17.3679 9.38222 18 10.9083 18 12.4995C18 14.0907 17.3679 15.6168 16.2428 16.742C16.1736 16.8137 16.0909 16.8709 15.9994 16.9102C15.9079 16.9496 15.8095 16.9703 15.7099 16.9712C15.6103 16.9721 15.5116 16.9532 15.4194 16.9155C15.3272 16.8778 15.2434 16.8222 15.173 16.7518C15.1025 16.6814 15.0468 16.5977 15.009 16.5056C14.9713 16.4134 14.9522 16.3147 14.9531 16.2151C14.9539 16.1155 14.9745 16.0171 15.0138 15.9255C15.0531 15.834 15.1102 15.7512 15.1818 15.682C15.5996 15.2642 15.9311 14.7681 16.1572 14.2221C16.3834 13.6761 16.4998 13.091 16.4998 12.5C16.4998 11.9091 16.3834 11.3239 16.1572 10.7779C15.9311 10.232 15.5996 9.73588 15.1818 9.31802C15.0493 9.17584 14.9771 8.98779 14.9806 8.79349C14.984 8.59919 15.0627 8.41381 15.2001 8.27639C15.3375 8.13898 15.5229 8.06027 15.7172 8.05684C15.9115 8.05341 16.0996 8.12554 16.2418 8.25802" fill="#C2C2C2"/>
<path d="M13.0607 11.4393C12.7794 11.158 12.3978 11 12 11C11.6022 11 11.2206 11.158 10.9393 11.4393C10.658 11.7206 10.5 12.1022 10.5 12.5C10.5 12.8978 10.658 13.2794 10.9393 13.5607C11.2206 13.842 11.6022 14 12 14C12.3978 14 12.7794 13.842 13.0607 13.5607C13.342 13.2794 13.5 12.8978 13.5 12.5C13.5 12.1022 13.342 11.7206 13.0607 11.4393Z" fill="#FF0404"/>
</svg>
